<?xml version="1.0" standalone="no"?><!DOCTYPE svg PUBLIC "-//W3C//DTD SVG 1.1//EN" "http://www.w3.org/Graphics/SVG/1.1/DTD/svg11.dtd"><svg t="1520995686730" class="icon" style="" viewBox="0 0 1024 1024" version="1.1" xmlns="http://www.w3.org/2000/svg" p-id="1853" xmlns:xlink="http://www.w3.org/1999/xlink" width="64" height="64"><defs><style type="text/css"></style></defs><path d="M433.694118 493.929412c-84.329412 0-150.588235 42.164706-150.588236 90.352941s66.258824 90.352941 150.588236 90.352941 150.588235-42.164706 150.588235-90.352941-66.258824-90.352941-150.588235-90.352941z" fill="#00BECA" p-id="1854"></path><path d="M903.529412 0H120.470588C54.211765 0 0 54.211765 0 120.470588v783.058824c0 66.258824 54.211765 120.470588 120.470588 120.470588h783.058824c66.258824 0 120.470588-54.211765 120.470588-120.470588V120.470588c0-66.258824-54.211765-120.470588-120.470588-120.470588z m-138.541177 457.788235l-120.470588-78.305882v210.823529c-6.023529 84.329412-96.376471 144.564706-210.823529 144.564706-120.470588 0-210.823529-66.258824-210.82353-150.588235s90.352941-150.588235 210.82353-150.588235c60.235294 0 114.447059 18.070588 150.588235 42.164706V289.129412h60.235294v18.070588l156.611765 102.4-36.141177 48.188235z" fill="#00BECA" p-id="1855"></path></svg>