<?xml version="1.0" standalone="no"?><!DOCTYPE svg PUBLIC "-//W3C//DTD SVG 1.1//EN" "http://www.w3.org/Graphics/SVG/1.1/DTD/svg11.dtd"><svg t="1520995759496" class="icon" style="" viewBox="0 0 1024 1024" version="1.1" xmlns="http://www.w3.org/2000/svg" p-id="2515" xmlns:xlink="http://www.w3.org/1999/xlink" width="64" height="64"><defs><style type="text/css"></style></defs><path d="M903.529412 0H120.470588C54.211765 0 0 54.211765 0 120.470588v783.058824c0 66.258824 54.211765 120.470588 120.470588 120.470588h783.058824c66.258824 0 120.470588-54.211765 120.470588-120.470588V120.470588c0-66.258824-54.211765-120.470588-120.470588-120.470588z m-72.282353 674.635294c-6.023529 12.047059-24.094118 12.047059-42.164706 12.047059-36.141176 0-96.376471-12.047059-144.564706-36.141177-84.329412 12.047059-144.564706 18.070588-198.776471 36.141177 0 0-6.023529 0-6.023529 6.023529-60.235294 102.4-102.4 150.588235-144.564706 150.588236-6.023529 0-12.047059 0-24.094117-6.02353l-24.094118-18.070588c-6.023529-6.023529-6.023529-18.070588-6.02353-24.094118 6.023529-24.094118 30.117647-66.258824 90.352942-102.4 12.047059-6.023529 24.094118-12.047059 42.164706-24.094117 12.047059-24.094118 30.117647-54.211765 48.188235-90.352941 24.094118-48.188235 42.164706-96.376471 54.211765-138.541177-18.070588-60.235294-30.117647-96.376471-12.047059-156.611765 6.023529-24.094118 24.094118-42.164706 36.141176-42.164706h12.047059c12.047059 0 24.094118 6.023529 30.117647 12.047059 30.117647 30.117647 18.070588 108.423529 0 174.682353v6.02353c18.070588 54.211765 48.188235 96.376471 78.305882 126.494117 12.047059 12.047059 24.094118 18.070588 42.164706 30.117647 24.094118 0 42.164706-6.023529 60.235294-6.023529 60.235294 0 96.376471 12.047059 108.42353 36.141176 6.023529 6.023529 6.023529 18.070588 6.023529 24.094118 6.023529 12.047059 0 24.094118-6.023529 30.117647z" fill="#FC7070" p-id="2516"></path></svg>