<?xml version="1.0" standalone="no"?><!DOCTYPE svg PUBLIC "-//W3C//DTD SVG 1.1//EN" "http://www.w3.org/Graphics/SVG/1.1/DTD/svg11.dtd"><svg t="1520995770902" class="icon" style="" viewBox="0 0 1024 1024" version="1.1" xmlns="http://www.w3.org/2000/svg" p-id="2644" xmlns:xlink="http://www.w3.org/1999/xlink" width="64" height="64"><defs><style type="text/css"></style></defs><path d="M903.529412 0H120.470588C54.211765 0 0 54.211765 0 120.470588v783.058824c0 66.258824 54.211765 120.470588 120.470588 120.470588h783.058824c66.258824 0 120.470588-54.211765 120.470588-120.470588V120.470588c0-66.258824-54.211765-120.470588-120.470588-120.470588zM542.117647 783.058824c-18.070588 0-30.117647-12.047059-30.117647-30.117648s12.047059-30.117647 30.117647-30.117647 30.117647 12.047059 30.117647 30.117647-12.047059 30.117647-30.117647 30.117648z m30.117647-192.752942v78.305883h-60.235294V542.117647c66.258824 0 120.470588-54.211765 120.470588-120.470588s-54.211765-120.470588-120.470588-120.470588-120.470588 54.211765-120.470588 120.470588c0 24.094118 6.023529 42.164706 18.070588 60.235294H343.341176c-6.023529-18.070588-12.047059-36.141176-12.047058-60.235294 0-102.4 78.305882-180.705882 180.705882-180.705883s180.705882 78.305882 180.705882 180.705883c0 78.305882-48.188235 144.564706-120.470588 168.658823z" fill="#9DA6B4" p-id="2645"></path></svg>