<?xml version="1.0" standalone="no"?><!DOCTYPE svg PUBLIC "-//W3C//DTD SVG 1.1//EN" "http://www.w3.org/Graphics/SVG/1.1/DTD/svg11.dtd"><svg t="1520995717605" class="icon" style="" viewBox="0 0 1024 1024" version="1.1" xmlns="http://www.w3.org/2000/svg" p-id="2127" xmlns:xlink="http://www.w3.org/1999/xlink" width="64" height="64"><defs><style type="text/css"></style></defs><path d="M331.294118 319.247059v379.482353c0 12.047059 12.047059 18.070588 24.094117 12.047059l295.152941-192.752942c6.023529-6.023529 6.023529-18.070588 0-24.094117L355.388235 307.2c-12.047059-6.023529-24.094118 6.023529-24.094117 12.047059z" fill="#7F8EFB" p-id="2128"></path><path d="M903.529412 0H120.470588C54.211765 0 0 54.211765 0 120.470588v783.058824c0 66.258824 54.211765 120.470588 120.470588 120.470588h783.058824c66.258824 0 120.470588-54.211765 120.470588-120.470588V120.470588c0-66.258824-54.211765-120.470588-120.470588-120.470588zM271.058824 783.058824V240.941176c0-24.094118 24.094118-36.141176 48.188235-24.094117l421.647059 271.058823c18.070588 12.047059 18.070588 36.141176 0 48.188236l-421.647059 271.058823c-24.094118 12.047059-48.188235 0-48.188235-24.094117z" fill="#7F8EFB" p-id="2129"></path></svg>