<?xml version="1.0" standalone="no"?><!DOCTYPE svg PUBLIC "-//W3C//DTD SVG 1.1//EN" "http://www.w3.org/Graphics/SVG/1.1/DTD/svg11.dtd"><svg t="1520995744326" class="icon" style="" viewBox="0 0 1024 1024" version="1.1" xmlns="http://www.w3.org/2000/svg" p-id="2386" xmlns:xlink="http://www.w3.org/1999/xlink" width="64" height="64"><defs><style type="text/css"></style></defs><path d="M903.529412 0H120.470588C54.211765 0 0 54.211765 0 120.470588v783.058824c0 66.258824 54.211765 120.470588 120.470588 120.470588h783.058824c66.258824 0 120.470588-54.211765 120.470588-120.470588V120.470588c0-66.258824-54.211765-120.470588-120.470588-120.470588z m-138.541177 319.247059l-114.447059 421.647059c-6.023529 12.047059-18.070588 24.094118-30.117647 24.094117s-24.094118-6.023529-24.094117-12.047059c0 0 0-6.023529-6.02353-6.023529l-78.305882-301.176471L421.647059 752.941176c-6.023529 12.047059-18.070588 24.094118-30.117647 24.094118s-18.070588-6.023529-24.094118-12.047059v-6.023529l-120.470588-415.62353c-6.023529-12.047059 6.023529-30.117647 24.094118-36.141176 12.047059 0 30.117647 6.023529 36.141176 24.094118l78.305882 301.17647 84.329412-313.223529c6.023529-18.070588 18.070588-24.094118 36.141177-24.094118h6.023529c6.023529 0 6.023529 0 12.047059 6.02353l6.023529 6.023529v12.047059l78.305883 301.17647L704.752941 301.176471c6.023529-18.070588 24.094118-24.094118 42.164706-24.094118 12.047059 6.023529 24.094118 24.094118 18.070588 42.164706z" fill="#5099F4" p-id="2387"></path></svg>